<?xml version="1.0" standalone="no"?>
<!DOCTYPE svg PUBLIC "-//W3C//DTD SVG 20010904//EN"
 "http://www.w3.org/TR/2001/REC-SVG-20010904/DTD/svg10.dtd">
<svg version="1.0" xmlns="http://www.w3.org/2000/svg"
 width="230.000000pt" height="230.000000pt" viewBox="0 0 230.000000 230.000000"
 preserveAspectRatio="xMidYMid meet">
<metadata>
Created by potrace 1.11, written by Peter Selinger 2001-2013
</metadata>
<g transform="translate(0.000000,230.000000) scale(0.100000,-0.100000)"
fill="#000000" stroke="none">
<path d="M996 2210 c-111 -18 -211 -50 -321 -105 -282 -139 -479 -382 -562
-693 -24 -86 -27 -115 -26 -262 0 -145 3 -177 26 -262 45 -171 135 -336 252
-466 l57 -62 34 30 c44 38 73 53 157 79 72 22 256 55 371 67 l69 7 32 71 c18
39 85 208 150 375 175 455 215 533 327 648 l60 61 -63 -14 c-93 -20 -155 -17
-287 12 -123 27 -164 26 -207 -2 -51 -33 -85 -138 -65 -203 7 -26 7 -37 -3
-43 -20 -13 -40 50 -34 108 18 176 181 254 406 194 91 -24 251 -27 331 -5 100
27 105 26 49 -4 -116 -62 -172 -163 -319 -571 -105 -290 -163 -438 -215 -539
l-35 -71 39 0 c54 0 175 26 228 50 104 46 175 119 269 277 47 79 64 98 64 71
0 -29 -119 -208 -176 -265 -94 -95 -193 -136 -405 -168 -32 -5 -42 -15 -97
-99 -66 -99 -191 -227 -255 -261 -20 -11 -37 -23 -37 -26 0 -4 42 -18 93 -30
77 -19 118 -23 252 -23 139 1 173 4 257 27 230 61 433 192 575 371 81 103 165
272 200 401 23 89 26 118 26 265 0 147 -3 176 -26 265 -124 465 -526 786
-1002 800 -71 2 -157 0 -189 -5z"/>
<path d="M890 495 c-127 -18 -225 -40 -292 -65 -59 -22 -138 -73 -138 -90 0
-16 110 -92 200 -139 73 -38 85 -42 108 -31 72 32 160 134 236 273 l38 67 -29
-1 c-15 -1 -71 -7 -123 -14z"/>
</g>
</svg>
